Coordinates
version=1
nRows=45
nColumns=24
inDegrees=yes

Units are S.I. units (second, meters, Newtons, ...)
If the header above contains a line with 'inDegrees', this indicates whether rotational values are in degrees (yes) or radians (no).

endheader
time	pelvis_tilt	pelvis_list	pelvis_rotation	pelvis_tx	pelvis_ty	pelvis_tz	hip_flexion_r	hip_adduction_r	hip_rotation_r	knee_angle_r	ankle_angle_r	subtalar_angle_r	mtp_angle_r	hip_flexion_l	hip_adduction_l	hip_rotation_l	knee_angle_l	ankle_angle_l	subtalar_angle_l	mtp_angle_l	lumbar_extension	lumbar_bending	lumbar_rotation
4.425000	11.273185	1.838352	-178.730929	0.312088	0.647875	-1.222159	61.677475	-25.731725	-17.317869	-85.680331	29.513323	5.981776	0.000000	64.627791	-30.364413	-11.435884	-84.043130	27.868206	17.083419	0.000000	-9.208907	2.123568	1.686740
4.430000	11.238736	1.847299	-178.763819	0.311648	0.652317	-1.222215	61.037192	-25.527332	-17.599497	-84.757625	29.136080	5.815309	0.000000	63.879684	-30.223913	-11.847424	-83.099524	27.594739	16.746717	0.000000	-9.153741	2.145220	1.693452
4.435000	11.246309	1.810237	-178.786297	0.311347	0.656592	-1.222165	60.479461	-25.373164	-17.843999	-83.820620	28.734688	5.632108	0.000000	63.226228	-30.029508	-12.154308	-82.188247	27.212857	16.623434	0.000000	-9.047679	2.129032	1.666635
4.440000	11.255566	1.774021	-178.805748	0.311046	0.660863	-1.222150	59.911362	-25.202108	-18.046389	-82.867080	28.323223	5.548488	0.000000	62.520851	-29.811199	-12.548587	-81.151392	26.849727	16.355710	0.000000	-8.948256	2.104052	1.661029
4.445000	11.310970	1.748457	-178.806920	0.310716	0.665136	-1.222132	59.373170	-25.034435	-18.256387	-81.898581	27.886288	5.553383	0.000000	61.957818	-29.582676	-12.682558	-80.179983	26.393990	16.417595	0.000000	-8.798317	2.054819	1.701910
4.450000	11.299638	1.777575	-178.836299	0.310292	0.669487	-1.222190	58.734131	-24.802710	-18.527028	-80.916162	27.491077	5.496722	0.000000	61.241940	-29.436406	-13.101608	-79.214265	26.058196	16.059502	0.000000	-8.695619	2.104818	1.686735
4.455000	11.294111	1.755962	-178.856919	0.309932	0.673718	-1.222145	58.153927	-24.620958	-18.735083	-79.966644	27.099451	5.440691	0.000000	60.580835	-29.230323	-13.372824	-78.258181	25.657376	15.860648	0.000000	-8.599636	2.089622	1.687930
4.460000	11.318953	1.733145	-178.871881	0.309527	0.677976	-1.222166	57.590229	-24.433063	-18.939913	-78.999111	26.700419	5.421756	0.000000	59.931503	-29.024175	-13.631085	-77.278776	25.284497	15.780589	0.000000	-8.461804	2.070861	1.696254
4.465000	11.327710	1.709343	-178.901318	0.309110	0.682213	-1.222160	57.000928	-24.241445	-19.136051	-78.010420	26.293556	5.460100	0.000000	59.260221	-28.827612	-13.937150	-76.303719	24.871470	15.613479	0.000000	-8.345801	2.056734	1.673354
4.470000	11.345349	1.693714	-178.928073	0.308646	0.686428	-1.222199	56.406773	-24.044328	-19.373586	-77.000562	25.875259	5.431314	0.000000	58.598807	-28.628164	-14.226051	-75.292150	24.470349	15.444123	0.000000	-8.224884	2.033504	1.717767
4.475000	11.341231	1.658554	-178.940272	0.308141	0.690646	-1.222190	55.802647	-23.875260	-19.581873	-76.015156	25.466082	5.414524	0.000000	57.916323	-28.412669	-14.527067	-74.313216	24.013633	15.264958	0.000000	-8.107499	2.005142	1.693462
4.480000	11.336661	1.627083	-178.989590	0.307678	0.694737	-1.222146	55.233167	-23.687256	-19.762307	-75.059428	25.055982	5.434832	0.000000	57.190148	-28.208899	-14.852242	-73.204836	23.671863	15.206160	0.000000	-7.994602	2.006509	1.686779
4.485000	11.351666	1.622617	-179.053500	0.307168	0.698855	-1.222124	54.666927	-23.467348	-19.977679	-74.076469	24.616147	5.419351	0.000000	56.529123	-28.034350	-15.134130	-72.210090	23.250790	15.049853	0.000000	-7.854169	2.016558	1.720152
4.490000	11.340762	1.621056	-179.099300	0.306616	0.702937	-1.222146	54.058203	-23.249261	-20.196389	-73.078038	24.185036	5.438273	0.000000	55.860481	-27.868496	-15.410598	-71.240611	22.821064	14.917803	0.000000	-7.747219	2.015697	1.776421
4.495000	11.347644	1.591124	-179.111343	0.306127	0.707053	-1.222220	53.458404	-23.051784	-20.395631	-72.044023	23.741683	5.441914	0.000000	55.236968	-27.656378	-15.687911	-70.343372	22.224857	14.697396	0.000000	-7.624951	1.972235	1.737691
4.500000	11.370806	1.569348	-179.138285	0.305594	0.711072	-1.222247	52.875331	-22.849184	-20.591952	-71.013704	23.307230	5.484617	0.000000	54.572673	-27.434306	-15.955233	-69.270729	21.919076	14.605193	0.000000	-7.472474	1.922435	1.811208
4.505000	11.389510	1.558452	-179.202020	0.305027	0.715066	-1.222185	52.312421	-22.616562	-20.767014	-69.998494	22.849946	5.458048	0.000000	53.913916	-27.248091	-16.228256	-68.287213	21.436353	14.252725	0.000000	-7.326595	1.927398	1.848149
4.510000	11.371526	1.530051	-179.267388	0.304454	0.719013	-1.222193	51.731878	-22.404943	-20.946040	-69.016912	22.409493	5.445571	0.000000	53.229588	-27.064754	-16.530653	-67.306979	21.043551	14.312862	0.000000	-7.222575	1.901307	1.865075
4.515000	11.361445	1.532816	-179.344493	0.303848	0.722945	-1.222207	51.135834	-22.155805	-21.150282	-68.000285	21.955331	5.425446	0.000000	52.549134	-26.901157	-16.791996	-66.311872	20.615535	14.194912	0.000000	-7.100465	1.918180	1.894472
4.520000	11.379498	1.546469	-179.415747	0.303197	0.726818	-1.222137	50.550758	-21.899882	-21.343894	-66.958881	21.492402	5.434439	0.000000	51.907088	-26.731573	-17.040153	-65.323788	20.191830	14.067925	0.000000	-6.948534	1.947292	1.924916
4.525000	11.333563	1.490955	-179.429416	0.302674	0.730641	-1.222171	49.932932	-21.731347	-21.520332	-65.954040	21.046019	5.433189	0.000000	51.207275	-26.480981	-17.301485	-64.325339	19.742908	13.954447	0.000000	-6.872550	1.918440	1.831135
4.530000	11.344322	1.485192	-179.480346	0.302066	0.734427	-1.222179	49.352796	-21.495776	-21.701402	-64.918553	20.589435	5.466674	0.000000	50.567279	-26.281953	-17.537215	-63.316276	19.320787	13.831153	0.000000	-6.725217	1.910250	1.844407
4.535000	11.347659	1.499925	-179.557788	0.301393	0.738249	-1.222150	48.762231	-21.238254	-21.908398	-63.879548	20.145649	5.463410	0.000000	49.912635	-26.116958	-17.765720	-62.333951	18.903800	13.720018	0.000000	-6.585248	1.944352	1.854624
4.540000	10.790169	1.460102	-179.606369	0.303166	0.739613	-1.222384	48.187381	-21.098698	-21.737668	-63.546675	20.145878	5.620783	0.000000	49.293768	-26.030675	-17.780917	-62.038317	18.684567	13.522108	0.000000	-7.593851	1.561809	2.257796
4.545000	11.356477	1.501989	-179.697829	0.300019	0.745695	-1.222060	47.552143	-20.739166	-22.205012	-61.730834	19.412729	5.806862	0.000000	48.599981	-25.725930	-18.241655	-60.269134	18.021631	13.388551	0.000000	-6.295668	1.968720	1.903944
4.550000	11.314489	1.467801	-179.724182	0.299375	0.749365	-1.222026	46.918587	-20.558741	-22.405734	-60.698223	18.938231	5.839226	0.000000	47.906186	-25.489850	-18.483341	-59.262549	17.556821	13.258636	0.000000	-6.208585	1.929305	1.888033
4.555000	11.282109	1.453178	-179.769677	0.298634	0.753013	-1.221990	46.280026	-20.336058	-22.572924	-59.639320	18.500726	5.927359	0.000000	47.205068	-25.265329	-18.712863	-58.205009	17.106787	13.117159	0.000000	-6.093526	1.899943	1.936693
4.560000	11.336278	1.475365	-179.863586	0.297955	0.756497	-1.221887	45.747495	-20.072467	-22.759203	-58.583441	18.032973	6.012927	0.000000	46.611379	-25.081697	-18.916883	-57.175898	16.666292	12.918640	0.000000	-5.899417	1.905767	2.058596
4.565000	11.277902	1.478875	-179.914423	0.297225	0.760019	-1.221893	45.106883	-19.860706	-22.992836	-57.585351	17.600970	6.051660	0.000000	45.913660	-24.887316	-19.125521	-56.153696	16.201978	12.772637	0.000000	-5.825675	1.930748	2.002933
4.570000	11.249156	1.457224	-179.956093	0.296527	0.763478	-1.221836	44.491965	-19.666169	-23.185201	-56.550852	17.162568	6.161220	0.000000	45.244054	-24.660004	-19.357702	-55.137372	15.736760	12.623760	0.000000	-5.723562	1.948296	1.915356
4.575000	11.289104	1.459854	-179.999097	0.295814	0.766866	-1.221766	43.926534	-19.439637	-23.380080	-55.476941	16.695815	6.251380	0.000000	44.654225	-24.433597	-19.550105	-54.109084	15.280227	12.433715	0.000000	-5.542550	1.948563	1.911878
4.580000	11.249826	1.427956	-180.025697	0.295060	0.770256	-1.221776	43.281061	-19.251225	-23.560643	-54.410601	16.250750	6.400563	0.000000	43.972481	-24.177810	-19.753051	-53.074709	14.839377	12.271745	0.000000	-5.439306	1.907448	1.903597
4.585000	11.242215	1.415568	-180.055059	0.294288	0.773560	-1.221662	42.674069	-19.070296	-23.788613	-53.362775	15.783729	6.568887	0.000000	43.335540	-23.941511	-19.959184	-52.050209	14.404987	12.164433	0.000000	-5.299050	1.910090	1.871997
4.590000	11.202330	1.412802	-180.107612	0.293498	0.776812	-1.221583	42.046816	-18.859088	-23.988835	-52.324584	15.352769	6.711224	0.000000	42.661362	-23.724533	-20.160249	-51.027580	13.921428	11.952270	0.000000	-5.202780	1.869902	1.960949
4.595000	11.212002	1.411371	-180.177847	0.292682	0.779976	-1.221401	41.483284	-18.650287	-24.196282	-51.301471	14.884935	6.828574	0.000000	42.029110	-23.497462	-20.349524	-49.998245	13.476005	11.758324	0.000000	-5.027610	1.937824	1.903269
4.600000	11.170336	1.371645	-180.220770	0.291926	0.783078	-1.221300	40.877797	-18.481402	-24.384669	-50.292902	14.444116	6.937147	0.000000	41.361376	-23.246419	-20.564664	-48.999518	13.018219	11.595422	0.000000	-4.925003	1.900045	1.906182
4.605000	11.128635	1.332384	-180.229475	0.291096	0.786166	-1.221172	40.243338	-18.331975	-24.613555	-49.260055	13.991494	7.058388	0.000000	40.695771	-22.974240	-20.761681	-47.983263	12.570244	11.483163	0.000000	-4.819828	1.855503	1.888459
4.610000	11.190964	1.368259	-180.287161	0.290317	0.789127	-1.221064	39.709467	-18.066518	-24.811340	-48.179595	13.487988	7.185795	0.000000	40.157838	-22.783096	-20.915047	-46.970741	12.114358	11.329360	0.000000	-4.598578	1.905253	1.914789
4.615000	11.066403	1.304264	-180.257886	0.289546	0.792065	-1.221065	39.023371	-17.945847	-25.005234	-47.204915	13.094158	7.272075	0.000000	39.438856	-22.476178	-21.071643	-45.974926	11.694035	11.221414	0.000000	-4.587579	1.859348	1.745959
4.620000	11.098673	1.346795	-180.340642	0.288727	0.794900	-1.220962	38.489052	-17.661587	-25.184926	-46.167058	12.621962	7.364765	0.000000	38.871496	-22.316938	-21.244952	-44.980639	11.247667	11.048632	0.000000	-4.392592	1.920553	1.797984
4.625000	11.036717	1.314583	-180.342835	0.287898	0.797713	-1.220790	37.865110	-17.506225	-25.393076	-45.174909	12.193937	7.439113	0.000000	38.216248	-22.040171	-21.392272	-43.983569	10.796089	10.915240	0.000000	-4.307120	1.852394	1.859740
4.630000	11.036143	1.336260	-180.398436	0.287060	0.800395	-1.220689	37.293320	-17.249928	-25.575042	-44.133855	11.724430	7.503663	0.000000	37.632368	-21.851395	-21.548506	-43.013371	10.357934	10.786119	0.000000	-4.144703	1.948299	1.770835
4.635000	10.975847	1.294816	-180.410392	0.286280	0.803040	-1.220632	36.685365	-17.079703	-25.759553	-43.144578	11.270737	7.535134	0.000000	36.986643	-21.583553	-21.703294	-42.031948	9.916544	10.700469	0.000000	-4.073377	1.889562	1.733439
4.640000	10.930766	1.303201	-180.419962	0.285507	0.805573	-1.220534	36.077900	-16.860637	-25.946232	-42.133924	10.834012	7.614100	0.000000	36.393333	-21.361190	-21.809599	-41.086846	9.467138	10.545988	0.000000	-3.961517	1.931734	1.646792
4.645000	10.950768	1.327241	-180.508347	0.284651	0.808081	-1.220296	35.559971	-16.589778	-26.068882	-41.118274	10.370073	7.665919	0.000000	35.829650	-21.182665	-21.982693	-40.128661	9.037014	10.404772	0.000000	-3.782306	2.008254	1.675528
